<?xml version="1.0" encoding="iso-8859-1"?>
<!-- Generator: Adobe Illustrator 19.0.0, SVG Export Plug-In . SVG Version: 6.00 Build 0)  -->
<svg version="1.1" id="Capa_1" xmlns="http://www.w3.org/2000/svg" xmlns:xlink="http://www.w3.org/1999/xlink" x="0px" y="0px"
	 viewBox="0 0 511.999 511.999" style="enable-background:new 0 0 511.999 511.999;" xml:space="preserve">
<g>
	<g>
		<path d="M508.874,478.707L360.142,329.975c28.21-34.826,45.191-79.102,45.191-127.309C405.333,90.917,314.417,0,202.667,0
			S0,90.917,0,202.667s90.917,202.667,202.667,202.667c48.206,0,92.482-16.98,127.309-45.191l148.732,148.732
			c4.167,4.167,10.919,4.167,15.086,0l15.081-15.082C513.04,489.626,513.04,482.874,508.874,478.707z M202.667,362.667
			c-88.229,0-160-71.771-160-160s71.771-160,160-160c12.551,0,24.71,1.602,36.435,4.346l14.523,43.579l-77.063,38.531
			c-4.75,2.375-7.031,7.875-5.344,12.917l19.24,57.74l-38,38.01c-4.167,4.167-4.167,10.917,0,15.083
			c2.083,2.083,4.813,3.125,7.542,3.125c2.729,0,5.458-1.042,7.542-3.125l42.667-42.667c2.854-2.854,3.854-7.083,2.573-10.917
			l-18.406-55.219l77.063-38.531c4.75-2.375,7.031-7.875,5.344-12.917l-12.53-37.598c57.738,24.172,98.415,81.229,98.415,147.641
			C362.667,290.896,290.896,362.667,202.667,362.667z"/>
	</g>
</g>
<g>
</g>
<g>
</g>
<g>
</g>
<g>
</g>
<g>
</g>
<g>
</g>
<g>
</g>
<g>
</g>
<g>
</g>
<g>
</g>
<g>
</g>
<g>
</g>
<g>
</g>
<g>
</g>
<g>
</g>
</svg>
